
nColumns=19
nRows=72
DataType=double
version=3
OpenSimVersion=4.4-2022-10-11-798caa840
endheader
time	ground_force_calcn_r_vx	ground_force_calcn_r_vy	ground_force_calcn_r_vz	ground_force_calcn_r_px	ground_force_calcn_r_py	ground_force_calcn_r_pz	ground_force_calcn_r_mx	ground_force_calcn_r_my	ground_force_calcn_r_mz	ground_force_calcn_l_vx	ground_force_calcn_l_vy	ground_force_calcn_l_vz	ground_force_calcn_l_px	ground_force_calcn_l_py	ground_force_calcn_l_pz	ground_force_calcn_l_mx	ground_force_calcn_l_my	ground_force_calcn_l_mz
1.05	-118.737	286.248	-24.3197	-0.170445	0	-0.337718	-0.302552	0.729385	-0.0619687	-98.11669999999999	216.41	13.0183	-0.07267899999999999	0	-0.8496629999999999	-0.0217214	0.0479095	0.00288203
1.06	-175.215	1323.94	-142.552	-0.22567	0	-0.343867	0.224487	-1.69625	0.182639	-229.175	440.433	71.78879999999999	-0.08026320000000001	0	-0.851015	-0.0326879	0.06282020000000001	0.0102394
1.07	-36.1556	1811.77	-171.377	-0.239244	0	-0.347607	0.110715	-5.54797	0.524788	-165.285	654.596	115.82	-0.121531	0	-0.841857	-0.305176	1.20862	0.213846
1.08	-160.512	1042.1	-119.849	-0.218194	0	-0.345478	0.693769	-4.50417	0.518014	-46.2329	1155.97	132.684	-0.175014	0	-0.829159	-0.206577	5.16512	0.592856
1.09	-263.842	452.25	-101.717	-0.152625	0	-0.333686	0.961668	-1.64839	0.370743	-69.1267	1265.53	131.923	-0.184405	0	-0.82564	-0.306076	5.60344	0.5841229999999999
1.1	-271.485	335.917	-101.971	-0.112856	0	-0.326738	0.381081	-0.471523	0.143135	-249.778	865.634	97.32640000000001	-0.156517	0	-0.825812	-1.0357	3.58933	0.403562
1.11	-245.611	374.573	-94.64360000000001	-0.120812	0	-0.328303	0.678602	-1.03491	0.261492	-286.318	633.29	72.8245	-0.129466	0	-0.826391	-1.2197	2.69779	0.310229
1.12	-210.297	427.406	-84.3442	-0.128396	0	-0.330164	1.06686	-2.16827	0.427886	-207.386	588.63	76.3235	-0.129111	0	-0.826717	-1.03343	2.93321	0.380329
1.13	-161.143	490.906	-80.9188	-0.13954	0	-0.332522	1.03273	-3.14611	0.518591	-168.114	616.4400000000001	81.7124	-0.132435	0	-0.826671	-0.977375	3.58384	0.475057
1.14	-104.062	563.95	-83.6895	-0.153245	0	-0.335276	0.659865	-3.57604	0.530681	-173.411	627.002	80.0288	-0.129039	0	-0.826793	-1.16571	4.21484	0.5379699999999999
1.15	-65.25279999999999	607.455	-82.1718	-0.161397	0	-0.33743	0.426012	-3.96586	0.536469	-164.218	621.427	83.0181	-0.126566	0	-0.827234	-1.1623	4.39832	0.587583
1.16	-55.6062	583.228	-74.29689999999999	-0.159443	0	-0.338217	0.383021	-4.01733	0.511764	-136.388	611.064	87.86	-0.127149	0	-0.827392	-0.900254	4.03344	0.579937
1.17	-60.5455	514.807	-65.46169999999999	-0.149737	0	-0.338063	0.411921	-3.50249	0.445369	-110.791	611.8099999999999	88.60420000000001	-0.13013	0	-0.826998	-0.69292	3.82643	0.554156
1.18	-68.94370000000001	452.893	-57.713	-0.13862	0	-0.338274	0.464988	-3.05452	0.389243	-90.13330000000001	641.734	87.95950000000001	-0.134866	0	-0.826406	-0.586493	4.17573	0.572348
1.19	-76.268	417.827	-52.6344	-0.130391	0	-0.339208	0.506122	-2.77274	0.349287	-80.7458	674.422	96.1477	-0.135314	0	-0.827142	-0.490744	4.09889	0.584351
1.2	-78.1987	406.258	-50.9727	-0.126258	0	-0.34036	0.485769	-2.52367	0.316641	-89.465	672.139	101.324	-0.129054	0	-0.828409	-0.511974	3.8464	0.579836
1.21	-76.51300000000001	412.819	-52.6797	-0.125755	0	-0.341437	0.44858	-2.42028	0.308851	-97.92230000000001	647.65	95.9016	-0.121141	0	-0.829206	-0.629791	4.16539	0.616795
1.22	-71.3262	441.242	-56.7878	-0.129787	0	-0.342483	0.427487	-2.64454	0.340353	-97.8815	625.101	89.1139	-0.115379	0	-0.82964	-0.7296899999999999	4.66002	0.6643289999999999
1.23	-54.585	489.819	-62.0295	-0.138626	0	-0.343905	0.340141	-3.05226	0.386531	-95.21510000000001	611.893	88.3693	-0.111386	0	-0.8301500000000001	-0.734388	4.71949	0.681586
1.24	-27.4828	541.7	-68.97669999999999	-0.148634	0	-0.345275	0.163731	-3.22722	0.410933	-91.2145	607.082	91.7561	-0.108706	0	-0.830832	-0.68385	4.55139	0.68791
1.25	-10.646	566.539	-77.5257	-0.153003	0	-0.345408	0.0551613	-2.93546	0.401691	-85.8276	608.823	94.6947	-0.107629	0	-0.831292	-0.665753	4.72256	0.734535
1.26	-13.7035	562.552	-80.8201	-0.151078	0	-0.34491	0.0707261	-2.90342	0.417126	-78.78959999999999	614.033	95.465	-0.108041	0	-0.831395	-0.69172	5.3908	0.8381189999999999
1.27	-24.4155	550.347	-78.3344	-0.146847	0	-0.344559	0.147064	-3.31495	0.471839	-69.7747	618.0940000000001	95.2894	-0.108952	0	-0.831206	-0.694843	6.15522	0.948929
1.28	-30.0847	541.405	-76.22929999999999	-0.143396	0	-0.344426	0.1986	-3.57401	0.503217	-61.0622	621.206	96.6942	-0.109858	0	-0.831134	-0.647302	6.58522	1.02503
1.29	-29.2593	536.1180000000001	-76.9046	-0.141272	0	-0.344168	0.193701	-3.54919	0.509122	-56.2398	624.52	100.54	-0.110781	0	-0.831364	-0.598715	6.64849	1.07033
1.3	-26.314	535.527	-78.85250000000001	-0.140123	0	-0.344146	0.173948	-3.54009	0.521252	-52.9708	626.329	103.912	-0.111541	0	-0.831596	-0.554445	6.55578	1.08765
1.31	-23.5263	540.401	-80.06529999999999	-0.139462	0	-0.344233	0.160227	-3.68042	0.545288	-47.5014	626.824	105.907	-0.111617	0	-0.831861	-0.487445	6.43228	1.08679
1.32	-19.7979	546.92	-80.2811	-0.138463	0	-0.344345	0.136925	-3.78256	0.555233	-42.9253	629.136	107.677	-0.110504	0	-0.831995	-0.425426	6.23528	1.06717
1.33	-16.5316	548.938	-81.46599999999999	-0.136148	0	-0.344152	0.107061	-3.55498	0.527583	-41.4301	629.081	108.607	-0.108368	0	-0.832245	-0.397697	6.03869	1.04254
1.34	-14.6278	546.323	-83.9636	-0.132906	0	-0.343617	0.08405269999999999	-3.13922	0.482462	-41.001	622.482	108.882	-0.105748	0	-0.832496	-0.380649	5.77907	1.01085
1.35	-13.5437	543.903	-85.9945	-0.129767	0	-0.343255	0.0711682	-2.85805	0.451877	-42.1104	612.3579999999999	108.38	-0.103049	0	-0.8325669999999999	-0.375578	5.46155	0.966633
1.36	-13.6082	543	-87.0996	-0.126796	0	-0.34307	0.0685791	-2.73647	0.438942	-42.9737	603.562	107.023	-0.100618	0	-0.832535	-0.372587	5.23295	0.9278999999999999
1.37	-14.3703	540.902	-88.07340000000001	-0.12366	0	-0.342702	0.06948029999999999	-2.61527	0.425835	-42.2995	598.3579999999999	106.323	-0.09844310000000001	0	-0.832376	-0.354285	5.01162	0.890527
1.38	-16.2481	536.682	-89.5748	-0.120492	0	-0.342313	0.07303809999999999	-2.41248	0.402654	-40.952	594.8099999999999	106.975	-0.0965343	0	-0.8321499999999999	-0.323207	4.69444	0.844283
1.39	-17.6215	531.6559999999999	-91.4662	-0.117859	0	-0.341801	0.0688984	-2.07873	0.357625	-38.2551	589.777	107.782	-0.0946491	0	-0.831997	-0.283064	4.36398	0.797519
1.4	-17.2984	527.236	-93.45099999999999	-0.115961	0	-0.341148	0.0548237	-1.67097	0.296173	-35.7941	584.126	108.162	-0.09296	0	-0.832018	-0.251037	4.09669	0.758582
1.41	-16.9838	524.328	-95.8489	-0.114317	0	-0.340622	0.0390535	-1.20567	0.2204	-34.9871	579.701	108.239	-0.0913305	0	-0.83214	-0.235092	3.89525	0.727303
1.42	-17.714	522.296	-98.4807	-0.112703	0	-0.339937	0.0268224	-0.790859	0.149119	-34.5519	576.7809999999999	107.983	-0.08985310000000001	0	-0.832209	-0.22674	3.78501	0.708618
1.43	-18.3108	520.721	-100.657	-0.11137	0	-0.338959	0.0182819	-0.5199	0.100498	-33.6739	575.269	107.337	-0.0886401	0	-0.832279	-0.22006	3.7594	0.70145
1.44	-19.4662	520.128	-102.172	-0.110173	0	-0.338171	0.0135699	-0.362582	0.07122439999999999	-32.9254	574.014	106.647	-0.0875905	0	-0.83242	-0.213485	3.72184	0.691491
1.45	-22.1151	520.372	-103.744	-0.109066	0	-0.337468	0.00935427	-0.220107	0.0438816	-32.2344	572.3630000000001	106.39	-0.0864704	0	-0.832711	-0.206946	3.67459	0.683026
1.46	-24.1029	522.1420000000001	-105.745	-0.108268	0	-0.33653	0.00770559	-0.166927	0.0338064	-31.2881	571.754	106.552	-0.08526540000000001	0	-0.8332000000000001	-0.1984	3.62552	0.675655
1.47	-24.1444	526.141	-107.536	-0.107815	0	-0.335616	0.0150507	-0.327975	0.067034	-31.0611	572.178	106.939	-0.084261	0	-0.833635	-0.193567	3.56571	0.666423
1.48	-23.9137	531.448	-108.112	-0.107444	0	-0.334899	0.0317991	-0.706691	0.143762	-32.5585	573.258	107	-0.08323659999999999	0	-0.834004	-0.198396	3.49317	0.652007
1.49	-25.6807	538.252	-107.588	-0.106991	0	-0.334313	0.0567255	-1.18893	0.237648	-36.1795	574.465	106.065	-0.0818888	0	-0.834418	-0.215286	3.41835	0.631141
1.5	-30.5299	545.5359999999999	-106.433	-0.106235	0	-0.333863	0.09068909999999999	-1.62052	0.31616	-42.2932	573.5940000000001	103.711	-0.0802686	0	-0.8346710000000001	-0.248891	3.37554	0.610328
1.51	-38.2772	551.561	-104.832	-0.105098	0	-0.333541	0.129971	-1.87284	0.355961	-51.2399	569.635	100.476	-0.0786094	0	-0.834831	-0.299822	3.33313	0.5879219999999999
1.52	-48.0779	555.359	-103.334	-0.103756	0	-0.333107	0.164632	-1.9017	0.353843	-61.5652	561.249	96.33540000000001	-0.07684390000000001	0	-0.835015	-0.351887	3.20792	0.550623
1.53	-58.442	555.465	-101.598	-0.102336	0	-0.332652	0.182274	-1.73244	0.316872	-70.6396	545.561	90.9134	-0.0748909	0	-0.835238	-0.386095	2.98188	0.496905
1.54	-69.0017	550.649	-98.69880000000001	-0.100849	0	-0.332409	0.176021	-1.40469	0.251777	-77.1238	519.7569999999999	84.3813	-0.07292800000000001	0	-0.83552	-0.395867	2.66785	0.433119
1.55	-78.35380000000001	538.774	-93.56610000000001	-0.0994022	0	-0.332229	0.142016	-0.976522	0.169588	-78.7761	479.698	75.611	-0.0707242	0	-0.835901	-0.384599	2.34197	0.369146
1.56	-81.79640000000001	514.203	-84.99469999999999	-0.0981653	0	-0.331769	0.0914402	-0.574828	0.0950155	-69.2469	417.287	62.785	-0.0683105	0	-0.836259	-0.35216	2.12214	0.319298
1.57	-73.73220000000001	467.817	-72.0461	-0.0969695	0	-0.331036	0.0355101	-0.225305	0.034698	-44.6784	325.199	46.0317	-0.0653663	0	-0.836877	-0.269744	1.96338	0.277915
1.58	-49.8981	388.612	-53.2458	-0.0954444	0	-0.330191	0.00575662	-0.0448332	0.00614283	-12.1527	206.375	27.8548	-0.0609775	0	-0.837426	-0.09542929999999999	1.62057	0.218731
1.59	-16.4629	272.63	-28.9409	-0.09317259999999999	0	-0.329275	0.0113021	-0.187166	0.0198685	9.10131	86.9776	12.3428	-0.049918	0	-0.835718	0.0963408	0.92069	0.130654
1.6	10.3093	137.317	-6.9004	-0.08929380000000001	0	-0.329369	-0.0275656	-0.367167	0.0184508	0	0	0	0	0	0	0	0	0
1.61	12.9508	31.3771	2.22457	-0.0762316	0	-0.339798	-0.106299	-0.257539	-0.018259	0	0	0	0	0	0	0	0	0
1.62	0	0	0	0	0	0	0	0	0	0	0	0	0	0	0	0	0	0
1.63	0	0	0	0	0	0	0	0	0	0	0	0	0	0	0	0	0	0
1.64	0	0	0	0	0	0	0	0	0	0	0	0	0	0	0	0	0	0
1.65	0	0	0	0	0	0	0	0	0	0	0	0	0	0	0	0	0	0
1.66	0	0	0	0	0	0	0	0	0	0	0	0	0	0	0	0	0	0
1.67	0	0	0	0	0	0	0	0	0	0	0	0	0	0	0	0	0	0
1.68	0	0	0	0	0	0	0	0	0	0	0	0	0	0	0	0	0	0
1.69	0	0	0	0	0	0	0	0	0	0	0	0	0	0	0	0	0	0
1.7	0	0	0	0	0	0	0	0	0	0	0	0	0	0	0	0	0	0
1.71	0	0	0	0	0	0	0	0	0	0	0	0	0	0	0	0	0	0
1.72	0	0	0	0	0	0	0	0	0	0	0	0	0	0	0	0	0	0
1.73	0	0	0	0	0	0	0	0	0	0	0	0	0	0	0	0	0	0
1.74	0	0	0	0	0	0	0	0	0	0	0	0	0	0	0	0	0	0
1.75	0	0	0	0	0	0	0	0	0	0	0	0	0	0	0	0	0	0
1.76	0	0	0	0	0	0	0	0	0	0	0	0	0	0	0	0	0	0
